<?xml version="1.0" encoding="iso-8859-1"?>
<!-- Uploaded to: SVG Repo, www.svgrepo.com, Generator: SVG Repo Mixer Tools -->
<svg height="800px" width="800px" version="1.1" id="Layer_1" xmlns="http://www.w3.org/2000/svg" xmlns:xlink="http://www.w3.org/1999/xlink" 
	 viewBox="0 0 496 496" xml:space="preserve">
<circle style="fill:#FFA81D;" cx="248" cy="248" r="248"/>
<path style="fill:#FFB533;" d="M248,410.4c-100.8,0-189.6-49.6-245.6-125.6C20.8,404.8,124,496,248,496s227.2-91.2,245.6-210.4
	C437.6,361.6,348.8,410.4,248,410.4z"/>
<path style="fill:#FFC022;" d="M0,248C0,111.2,111.2,0,248,0"/>
<path style="fill:#FF8C1A;" d="M248,0c136.8,0,248,111.2,248,248S384.8,496,248,496"/>
<path style="fill:#FFA31D;" d="M264,495.2c2.4,0,5.6,0,8-0.8c1.6,0,3.2,0,4.8-0.8c2.4,0,4.8-0.8,7.2-0.8c1.6,0,3.2-0.8,4.8-0.8
	c2.4,0,4.8-0.8,7.2-1.6c1.6,0,3.2-0.8,4.8-0.8c2.4-0.8,4.8-0.8,6.4-1.6c1.6-0.8,3.2-0.8,4.8-1.6c2.4-0.8,4-1.6,6.4-1.6
	c1.6-0.8,3.2-0.8,4.8-1.6c2.4-0.8,4-1.6,6.4-2.4c1.6-0.8,3.2-0.8,4.8-1.6c2.4-0.8,4-1.6,6.4-2.4c1.6-0.8,3.2-0.8,4-1.6
	c2.4-0.8,4.8-2.4,7.2-3.2c0.8-0.8,2.4-0.8,3.2-1.6c3.2-1.6,6.4-3.2,10.4-5.6c0.8-0.8,1.6-0.8,2.4-1.6c2.4-1.6,4.8-3.2,8-4.8
	c1.6-0.8,2.4-1.6,4-2.4c1.6-1.6,4-2.4,5.6-4c1.6-0.8,2.4-1.6,4-3.2s3.2-2.4,5.6-4c1.6-0.8,2.4-2.4,4-3.2c1.6-1.6,3.2-2.4,4.8-4
	c1.6-0.8,2.4-2.4,4-3.2c1.6-1.6,3.2-2.4,4.8-4c1.6-0.8,2.4-2.4,4-3.2c1.6-1.6,3.2-2.4,4.8-4c1.6-1.6,2.4-2.4,4-4s3.2-3.2,4-4.8
	c1.6-1.6,2.4-2.4,3.2-4c1.6-1.6,2.4-3.2,4-4.8c0.8-1.6,2.4-2.4,3.2-4c1.6-1.6,3.2-3.2,4-5.6c0.8-1.6,1.6-2.4,2.4-3.2
	c2.4-3.2,4-5.6,6.4-8.8c0.8-1.6,1.6-2.4,2.4-4c1.6-1.6,2.4-4,4-5.6c0.8-1.6,1.6-3.2,2.4-4.8c0.8-1.6,2.4-3.2,3.2-5.6
	c0.8-1.6,1.6-3.2,2.4-4.8c0.8-1.6,1.6-3.2,2.4-5.6c0.8-1.6,1.6-3.2,2.4-4.8c0.8-1.6,1.6-3.2,2.4-5.6c0.8-1.6,1.6-3.2,2.4-5.6
	c0.8-1.6,1.6-4,2.4-5.6s1.6-3.2,1.6-5.6c0.8-1.6,1.6-4,1.6-5.6c0.8-1.6,0.8-4,1.6-5.6c0.8-1.6,0.8-4,1.6-5.6c0.8-1.6,0.8-4,1.6-5.6
	c0.8-1.6,0.8-4,1.6-6.4c0.8-1.6,0.8-3.2,0.8-5.6c0.8-2.4,0.8-4.8,1.6-6.4c0-1.6,0.8-3.2,0.8-4.8l0,0c-56,76-144.8,125.6-245.6,125.6
	V496c4,0,8,0,12,0C261.6,496,263.2,495.2,264,495.2z"/>
<g>
	<path style="fill:#F47B0F;" d="M496,248C496,111.2,384.8,0,248,0"/>
	<path style="fill:#F47B0F;" d="M330.4,150.4c-0.8-3.2-3.2-4.8-6.4-5.6l-48-7.2l-21.6-43.2c-1.6-2.4-4-4-7.2-4s-5.6,1.6-7.2,4
		l-21.6,43.2l-48,7.2c-3.2,0.8-5.6,2.4-6.4,5.6c-0.8,3.2,0,5.6,1.6,8L200,192l-8,48c-0.8,3.2,0.8,5.6,3.2,7.2s5.6,1.6,8,0.8
		l42.4-22.4L288,248c0.8,0.8,2.4,0.8,4,0.8s3.2-0.8,4.8-1.6c2.4-1.6,3.2-4.8,3.2-7.2l-8-48l34.4-33.6
		C330.4,156,331.2,152.8,330.4,150.4z"/>
</g>
<path style="fill:#D31160;" d="M330.4,137.6c-0.8-3.2-3.2-4.8-6.4-5.6l-48-7.2l-21.6-43.2c-1.6-2.4-4-4-7.2-4s-5.6,1.6-7.2,4
	l-21.6,43.2l-48,7.2c-3.2,0.8-5.6,2.4-6.4,5.6c-0.8,3.2,0,5.6,1.6,8l34.4,33.6l-8,48c-0.8,3.2,0.8,5.6,3.2,7.2
	c2.4,1.6,5.6,1.6,8,0.8l42.4-22.4l42.4,22.4c0.8,0.8,2.4,0.8,4,0.8s3.2-0.8,4.8-1.6c2.4-1.6,3.2-4.8,3.2-7.2l-8-48l34.4-33.6
	C330.4,143.2,331.2,140,330.4,137.6z"/>
<path style="fill:#AD055A;" d="M290.4,235.2c0.8,0.8,2.4,0.8,4,0.8s3.2-0.8,4.8-1.6c2.4-1.6,3.2-4.8,3.2-7.2l-8-48l34.4-33.6
	c2.4-2.4,3.2-4.8,1.6-8s-3.2-4.8-6.4-5.6l-48-7.2l-21.6-43.2c-1.6-2.4-4-4-7.2-4v135.2L290.4,235.2z"/>
</svg>