<?xml version="1.0" encoding="iso-8859-1"?>
<!-- Uploaded to: SVG Repo, www.svgrepo.com, Generator: SVG Repo Mixer Tools -->
<svg height="800px" width="800px" version="1.1" id="Layer_1" xmlns="http://www.w3.org/2000/svg" xmlns:xlink="http://www.w3.org/1999/xlink" 
	 viewBox="0 0 501.551 501.551" xml:space="preserve">
<path style="fill:#FF7058;" d="M250.776,0C111.804,0,0,111.804,0,250.776s111.804,250.776,250.776,250.776
	s250.776-111.804,250.776-250.776S389.747,0,250.776,0z M250.776,361.535c-60.604,0-110.759-49.11-110.759-110.759
	s49.11-110.759,110.759-110.759s110.759,49.11,110.759,110.759S311.38,361.535,250.776,361.535z"/>
<path style="fill:#F1543F;" d="M438.857,172.408c-11.494-26.122-6.269-64.784-26.122-84.637
	c-19.853-19.853-57.469-14.629-83.592-25.078c-25.078-10.449-49.11-41.796-78.367-41.796s-52.245,31.347-78.367,41.796
	s-63.739,5.224-84.637,25.078c-19.853,20.898-14.629,58.514-25.078,84.637c-10.449,25.078-41.796,49.11-41.796,78.367
	s31.347,52.245,41.796,78.367c11.494,26.122,6.269,64.784,26.122,84.637c19.853,19.853,58.514,14.629,84.637,26.122
	c25.078,10.449,49.11,41.796,78.367,41.796s52.245-31.347,78.367-41.796c26.122-11.494,64.784-6.269,84.637-26.122
	c19.853-19.853,14.629-58.514,26.122-84.637c10.449-25.078,41.796-49.11,41.796-78.367S449.306,198.531,438.857,172.408z
	 M250.776,383.478c-73.143,0-132.702-59.559-132.702-132.702s59.559-132.702,132.702-132.702s132.702,59.559,132.702,132.702
	S323.918,383.478,250.776,383.478z"/>
<g>
	<path style="fill:#F2F2F2;" d="M86.727,230.922L86.727,230.922H44.931c-4.18,0-8.359-4.18-8.359-8.359
		c0-4.18,3.135-8.359,8.359-8.359l0,0h41.796c4.18,0,8.359,4.18,8.359,8.359C94.041,227.788,90.906,230.922,86.727,230.922z"/>
	<path style="fill:#F2F2F2;" d="M167.184,106.58c-3.135,0-5.224-2.09-7.314-4.18l-18.808-37.616c-2.09-4.18,0-8.359,3.135-10.449
		c4.18-2.09,8.359,0,10.449,3.135l18.808,37.616C176.588,98.22,175.543,106.58,167.184,106.58z"/>
</g>
<g>
	<path style="fill:#FFD15C;" d="M375.118,78.367L375.118,78.367l-42.841-2.09c-4.18,0-7.314-4.18-7.314-8.359
		s4.18-7.314,8.359-7.314l41.796,2.09c4.18,0,7.314,4.18,7.314,8.359C382.433,75.233,379.298,78.367,375.118,78.367z"/>
	<path style="fill:#FFD15C;" d="M370.939,370.939c-4.18-2.09-6.269-6.269-4.18-10.449l16.718-38.661
		c2.09-4.18,6.269-6.269,10.449-4.18c4.18,2.09,6.269,6.269,4.18,10.449l-16.718,38.661
		C380.343,369.894,376.163,373.029,370.939,370.939z"/>
</g>
<path style="fill:#F2F2F2;" d="M194.351,475.429c-3.135-3.135-3.135-8.359,0-11.494l29.257-29.257c3.135-3.135,8.359-3.135,11.494,0
	c3.135,3.135,3.135,8.359,0,11.494l-29.257,29.257C203.755,477.518,197.486,478.563,194.351,475.429z"/>
<g>
	<path style="fill:#84DBFF;" d="M411.69,189.127l-20.898-36.571c-2.09-4.18-1.045-8.359,3.135-10.449s8.359-1.045,10.449,3.135
		l20.898,36.571c2.09,4.18,1.045,8.359-3.135,10.449C419.004,194.351,413.78,193.306,411.69,189.127z"/>
	<path style="fill:#84DBFF;" d="M107.624,378.253l-20.898-36.571c-2.09-4.18-1.045-8.359,3.135-10.449
		c4.18-2.09,8.359-1.045,10.449,3.135l20.898,36.571c2.09,4.18,1.045,8.359-3.135,10.449
		C114.939,383.478,109.714,380.343,107.624,378.253z"/>
</g>
<circle style="fill:#FF7058;" cx="346.906" cy="404.376" r="13.584"/>
<circle style="fill:#F2F2F2;" cx="467.069" cy="309.29" r="13.584"/>
<circle style="fill:#FFD15C;" cx="51.2" cy="323.918" r="13.584"/>
<circle style="fill:#FF7058;" cx="253.91" cy="94.041" r="13.584"/>
<circle style="fill:#84DBFF;" cx="72.098" cy="126.433" r="13.584"/>
</svg>